<svg width="128" height="35" viewBox="0 0 128 35" fill="none" xmlns="http://www.w3.org/2000/svg">
<path d="M1.48883 12.848C1.84349 12.764 2.22616 12.708 2.63683 12.68C3.04749 12.652 3.45349 12.638 3.85483 12.638C4.28416 12.638 4.71816 12.68 5.15683 12.764C5.60483 12.848 6.01083 13.002 6.37483 13.226C6.73883 13.45 7.03283 13.758 7.25683 14.15C7.49016 14.542 7.60683 15.0414 7.60683 15.648C7.60683 16.2454 7.49949 16.7494 7.28483 17.16C7.07016 17.5707 6.7855 17.9067 6.43083 18.168C6.07616 18.42 5.67016 18.602 5.21283 18.714C4.75549 18.826 4.28416 18.882 3.79883 18.882C3.75216 18.882 3.67283 18.882 3.56083 18.882C3.45816 18.882 3.34616 18.882 3.22483 18.882C3.11283 18.8727 3.00083 18.8634 2.88883 18.854C2.77683 18.8447 2.69749 18.8354 2.65083 18.826V22.55H1.48883V12.848ZM3.88283 13.646C3.64016 13.646 3.40683 13.6507 3.18283 13.66C2.95883 13.6694 2.78149 13.6927 2.65083 13.73V17.79C2.69749 17.8087 2.77216 17.8227 2.87483 17.832C2.97749 17.832 3.08483 17.8367 3.19683 17.846C3.30883 17.846 3.41616 17.846 3.51883 17.846C3.62149 17.846 3.69616 17.846 3.74283 17.846C4.06016 17.846 4.37283 17.818 4.68083 17.762C4.99816 17.6967 5.28283 17.5847 5.53483 17.426C5.78683 17.2674 5.9875 17.0434 6.13683 16.754C6.2955 16.4647 6.37483 16.096 6.37483 15.648C6.37483 15.2654 6.30016 14.948 6.15083 14.696C6.01083 14.4347 5.8195 14.2294 5.57683 14.08C5.3435 13.9214 5.0775 13.8094 4.77883 13.744C4.48016 13.6787 4.1815 13.646 3.88283 13.646ZM13.0825 19.834H9.47047L8.49047 22.55H7.34247L11.0525 12.596H11.5845L15.3085 22.55H14.0905L13.0825 19.834ZM9.84847 18.826H12.7325L11.6405 15.844L11.2905 14.36H11.2765L10.9265 15.872L9.84847 18.826ZM17.3659 17.916V16.936H17.5899C17.6739 16.936 17.7766 16.936 17.8979 16.936C18.0193 16.936 18.1406 16.9314 18.2619 16.922C18.3926 16.9127 18.5139 16.908 18.6259 16.908C18.7473 16.8987 18.8453 16.8847 18.9199 16.866C19.1626 16.8287 19.3913 16.768 19.6059 16.684C19.8206 16.5907 20.0073 16.474 20.1659 16.334C20.3246 16.194 20.4506 16.0307 20.5439 15.844C20.6373 15.6574 20.6839 15.452 20.6839 15.228C20.6839 14.92 20.6326 14.6634 20.5299 14.458C20.4273 14.2527 20.2826 14.0894 20.0959 13.968C19.9186 13.8374 19.7086 13.7487 19.4659 13.702C19.2326 13.646 18.9806 13.618 18.7099 13.618C18.2059 13.618 17.7766 13.6554 17.4219 13.73C17.0673 13.7954 16.7826 13.8794 16.5679 13.982L16.2599 13.058C16.4466 12.9554 16.7826 12.8527 17.2679 12.75C17.7533 12.638 18.2993 12.582 18.9059 12.582C19.2793 12.582 19.6433 12.624 19.9979 12.708C20.3619 12.7827 20.6839 12.9134 20.9639 13.1C21.2533 13.2774 21.4819 13.5247 21.6499 13.842C21.8273 14.15 21.9159 14.5327 21.9159 14.99C21.9159 15.4567 21.7619 15.9047 21.4539 16.334C21.1459 16.754 20.6839 17.0574 20.0679 17.244V17.3C20.7306 17.3934 21.2533 17.6407 21.6359 18.042C22.0186 18.4434 22.2099 18.98 22.2099 19.652C22.2099 20.184 22.1026 20.646 21.8879 21.038C21.6826 21.4207 21.4073 21.738 21.0619 21.99C20.7259 22.242 20.3339 22.4287 19.8859 22.55C19.4473 22.662 18.9993 22.718 18.5419 22.718C17.9259 22.718 17.4173 22.6807 17.0159 22.606C16.6239 22.5407 16.2973 22.4567 16.0359 22.354L16.3299 21.304C16.5446 21.4067 16.8433 21.4954 17.2259 21.57C17.6179 21.6447 18.0893 21.682 18.6399 21.682C18.9293 21.682 19.2139 21.6447 19.4939 21.57C19.7739 21.486 20.0213 21.3647 20.2359 21.206C20.4599 21.038 20.6373 20.8327 20.7679 20.59C20.9079 20.3474 20.9779 20.058 20.9779 19.722C20.9779 19.134 20.7726 18.7047 20.3619 18.434C19.9513 18.154 19.4146 17.9907 18.7519 17.944C18.6399 17.9347 18.5326 17.93 18.4299 17.93C18.3366 17.9207 18.2386 17.916 18.1359 17.916H17.3659ZM24.1841 12.848C24.5388 12.764 24.9215 12.708 25.3321 12.68C25.7428 12.652 26.1488 12.638 26.5501 12.638C26.9795 12.638 27.4135 12.68 27.8521 12.764C28.3001 12.848 28.7061 13.002 29.0701 13.226C29.4341 13.45 29.7281 13.758 29.9521 14.15C30.1855 14.542 30.3021 15.0414 30.3021 15.648C30.3021 16.2454 30.1948 16.7494 29.9801 17.16C29.7655 17.5707 29.4808 17.9067 29.1261 18.168C28.7715 18.42 28.3655 18.602 27.9081 18.714C27.4508 18.826 26.9795 18.882 26.4941 18.882C26.4475 18.882 26.3681 18.882 26.2561 18.882C26.1535 18.882 26.0415 18.882 25.9201 18.882C25.8081 18.8727 25.6961 18.8634 25.5841 18.854C25.4721 18.8447 25.3928 18.8354 25.3461 18.826V22.55H24.1841V12.848ZM26.5781 13.646C26.3355 13.646 26.1021 13.6507 25.8781 13.66C25.6541 13.6694 25.4768 13.6927 25.3461 13.73V17.79C25.3928 17.8087 25.4675 17.8227 25.5701 17.832C25.6728 17.832 25.7801 17.8367 25.8921 17.846C26.0041 17.846 26.1115 17.846 26.2141 17.846C26.3168 17.846 26.3915 17.846 26.4381 17.846C26.7555 17.846 27.0681 17.818 27.3761 17.762C27.6935 17.6967 27.9781 17.5847 28.2301 17.426C28.4821 17.2674 28.6828 17.0434 28.8321 16.754C28.9908 16.4647 29.0701 16.096 29.0701 15.648C29.0701 15.2654 28.9955 14.948 28.8461 14.696C28.7061 14.4347 28.5148 14.2294 28.2721 14.08C28.0388 13.9214 27.7728 13.8094 27.4741 13.744C27.1755 13.6787 26.8768 13.646 26.5781 13.646ZM35.7778 19.834H32.1658L31.1858 22.55H30.0378L33.7478 12.596H34.2798L38.0038 22.55H36.7858L35.7778 19.834ZM32.5438 18.826H35.4278L34.3358 15.844L33.9858 14.36H33.9718L33.6218 15.872L32.5438 18.826ZM39.3052 12.75H44.6252V13.786H40.4672V16.726C40.6259 16.698 40.8219 16.67 41.0552 16.642C41.2886 16.614 41.5126 16.6 41.7272 16.6C42.2032 16.6 42.6559 16.6467 43.0852 16.74C43.5146 16.824 43.8926 16.9734 44.2192 17.188C44.5459 17.4027 44.8026 17.6967 44.9892 18.07C45.1852 18.434 45.2832 18.896 45.2832 19.456C45.2832 20.016 45.1852 20.5014 44.9892 20.912C44.7932 21.3134 44.5319 21.6447 44.2052 21.906C43.8786 22.158 43.4959 22.3494 43.0572 22.48C42.6279 22.6014 42.1752 22.662 41.6992 22.662C41.5406 22.662 41.3586 22.6574 41.1532 22.648C40.9572 22.648 40.7472 22.6387 40.5232 22.62C40.3086 22.6014 40.0939 22.578 39.8792 22.55C39.6739 22.5314 39.4826 22.4987 39.3052 22.452V12.75ZM41.8392 21.654C42.1379 21.654 42.4226 21.612 42.6932 21.528C42.9639 21.444 43.1972 21.3227 43.3932 21.164C43.5986 20.996 43.7572 20.786 43.8692 20.534C43.9906 20.282 44.0512 19.988 44.0512 19.652C44.0512 19.2227 43.9812 18.8774 43.8412 18.616C43.7106 18.3454 43.5332 18.1354 43.3092 17.986C43.0852 17.8367 42.8239 17.7387 42.5252 17.692C42.2359 17.636 41.9326 17.608 41.6152 17.608C41.5312 17.608 41.4332 17.6127 41.3212 17.622C41.2092 17.6314 41.0972 17.6407 40.9852 17.65C40.8732 17.6594 40.7706 17.6734 40.6772 17.692C40.5839 17.7014 40.5139 17.7107 40.4672 17.72V21.57C40.5326 21.5887 40.6166 21.6027 40.7192 21.612C40.8312 21.6214 40.9479 21.6307 41.0692 21.64C41.1999 21.6494 41.3306 21.654 41.4612 21.654C41.5919 21.654 41.7179 21.654 41.8392 21.654ZM46.5965 17.65C46.5965 16.0167 46.9418 14.766 47.6325 13.898C48.3232 13.0207 49.3078 12.582 50.5865 12.582C51.2772 12.582 51.8745 12.7034 52.3785 12.946C52.8825 13.1887 53.2978 13.534 53.6245 13.982C53.9605 14.4207 54.2078 14.9527 54.3665 15.578C54.5252 16.194 54.6045 16.8847 54.6045 17.65C54.6045 19.2834 54.2545 20.5387 53.5545 21.416C52.8638 22.284 51.8745 22.718 50.5865 22.718C49.9052 22.718 49.3125 22.5967 48.8085 22.354C48.3138 22.1114 47.8985 21.7707 47.5625 21.332C47.2358 20.884 46.9932 20.352 46.8345 19.736C46.6758 19.1107 46.5965 18.4154 46.5965 17.65ZM47.8285 17.65C47.8285 18.1914 47.8798 18.7047 47.9825 19.19C48.0945 19.6754 48.2625 20.1047 48.4865 20.478C48.7105 20.842 48.9952 21.136 49.3405 21.36C49.6952 21.5747 50.1105 21.682 50.5865 21.682C51.4545 21.682 52.1358 21.3554 52.6305 20.702C53.1252 20.0394 53.3725 19.022 53.3725 17.65C53.3725 17.118 53.3165 16.6094 53.2045 16.124C53.1018 15.6294 52.9338 15.2 52.7005 14.836C52.4765 14.4627 52.1872 14.1687 51.8325 13.954C51.4872 13.73 51.0718 13.618 50.5865 13.618C49.7278 13.618 49.0512 13.9494 48.5565 14.612C48.0712 15.2654 47.8285 16.278 47.8285 17.65ZM62.2309 13.786H59.1789V22.55H58.0169V13.786H54.9649V12.75H62.2309V13.786ZM67.3872 19.834H63.7752L62.7952 22.55H61.6472L65.3572 12.596H65.8892L69.6132 22.55H68.3952L67.3872 19.834ZM64.1532 18.826H67.0372L65.9452 15.844L65.5952 14.36H65.5812L65.2312 15.872L64.1532 18.826ZM76.7806 18.056H72.0766V22.55H70.9146V12.75H72.0766V17.02H76.7806V12.75H77.9426V22.55H76.7806V18.056ZM79.9149 17.65C79.9149 16.0167 80.2602 14.766 80.9509 13.898C81.6415 13.0207 82.6262 12.582 83.9049 12.582C84.5955 12.582 85.1929 12.7034 85.6969 12.946C86.2009 13.1887 86.6162 13.534 86.9429 13.982C87.2789 14.4207 87.5262 14.9527 87.6849 15.578C87.8435 16.194 87.9229 16.8847 87.9229 17.65C87.9229 19.2834 87.5729 20.5387 86.8729 21.416C86.1822 22.284 85.1929 22.718 83.9049 22.718C83.2235 22.718 82.6309 22.5967 82.1269 22.354C81.6322 22.1114 81.2169 21.7707 80.8809 21.332C80.5542 20.884 80.3115 20.352 80.1529 19.736C79.9942 19.1107 79.9149 18.4154 79.9149 17.65ZM81.1469 17.65C81.1469 18.1914 81.1982 18.7047 81.3009 19.19C81.4129 19.6754 81.5809 20.1047 81.8049 20.478C82.0289 20.842 82.3135 21.136 82.6589 21.36C83.0135 21.5747 83.4289 21.682 83.9049 21.682C84.7729 21.682 85.4542 21.3554 85.9489 20.702C86.4435 20.0394 86.6909 19.022 86.6909 17.65C86.6909 17.118 86.6349 16.6094 86.5229 16.124C86.4202 15.6294 86.2522 15.2 86.0189 14.836C85.7949 14.4627 85.5055 14.1687 85.1509 13.954C84.8055 13.73 84.3902 13.618 83.9049 13.618C83.0462 13.618 82.3695 13.9494 81.8749 14.612C81.3895 15.2654 81.1469 16.278 81.1469 17.65Z" fill="black"/>
<path d="M114.6 0H114.5L101 1.4V26.1L114.5 34.1L127.9 26.1V1.4L114.6 0ZM126 12.1L114.5 5.3V5.2H114.4L114.3 5.1V5.2L102.9 12.1V3.1L114.4 1.9L126 3.1V12.1ZM114.4 6.8L125.9 13.5L121.4 16.1L114.3 11.9V13.3L120.2 16.8L119.3 17.3L114.3 14.3V15.7L118.1 18L117.3 18.5L114.3 16.7V18.1L116.2 19.2L114.4 20.3L103 13.6L114.4 6.8ZM102.9 15.1L114.3 21.9V22.9L106.4 18.2V19.6L114.4 24.4V25.5L106.4 20.8V22.2L114.4 27L122.5 22.1V16.9L125.9 14.9V24.9L114.4 31.8L102.9 25V15.1Z" fill="black"/>
</svg>
